<svg id="Capa_1" data-name="Capa 1" xmlns="http://www.w3.org/2000/svg" width="2002.77" height="1421.77" viewBox="0 0 2002.77 1421.77">
  <defs>
    <style>
      .cls-1 {
        fill: #f06604;
      }
    </style>
  </defs>
  <g>
    <path class="cls-1" d="M-374.59-1744.47h0A80.75,80.75,0,0,1-418-1850.09l.16-.39a79.87,79.87,0,0,1,20.54-28.87L-1.59-2234l283.08,232v-27.2a81.86,81.86,0,0,1,81.87-81.87h0a81.87,81.87,0,0,1,81.87,81.87h0v220.36a79.93,79.93,0,0,1-79.93,79.92h0a87.11,87.11,0,0,1-57.45-21.37l-306.11-265-282,255A88.79,88.79,0,0,1-374.59-1744.47Zm-33.58,194h0a81.87,81.87,0,0,1,81.87-81.87H342.26a81.87,81.87,0,0,1,81.87,81.87h0a81.87,81.87,0,0,1-81.87,81.88H-326.3a81.87,81.87,0,0,1-81.87-81.88Z" transform="translate(990.92 2234.03)"/>
    <g>
      <g>
        <path d="M-989.8-1283.17h120c65.56.37,91.73,52.85,91.73,85.13,0,22.19-12.34,94-91.36,95.6h-38v86h-82.26Zm83.64,60.08v67.68l14.58.75c18.82,0,34.65-12.09,34.65-34.65,0-12.72-8.47-34.65-37.76-33Z" transform="translate(990.92 2234.03)"/>
        <path d="M-735.4-1283.17h120.78c87-2.62,99.47,56.09,99.47,77.4,0,29.42-15.58,69.31-52.73,70.8,13.59,6.11,67.68,94.85,79.15,118.54h-93.86c-4.48-8.85-45.49-91-54.46-91h-17.33v91h-81Zm82.27,58.58V-1161h20.06c27.92,0,36.4-21.44,36.4-32,0-21.57-17.7-31.54-38-31.54Z" transform="translate(990.92 2234.03)"/>
        <path d="M513.4-1283.17H635.06c92.33,0,99.21,56.09,99.21,77.4,0,29.42-15.45,69.31-52.6,70.8,13.59,6.11,67.56,94.85,79,118.54H665.09c-4.36-8.73-44.74-89.75-53.59-89.75h-17v91h-81v-268Zm82.39,58.58V-1161h20.07c27.8,0,36.4-21.44,36.4-32,0-21.57-17.7-31.54-37.9-31.54Z" transform="translate(990.92 2234.03)"/>
        <path d="M-327.69-1289.28c120.65-.74,141.35,101.71,141.35,138.61s-17.7,139.1-141.35,138.35c-125.64-.75-141.72-100.71-141.72-138.35S-453.33-1288.4-327.69-1289.28Zm-1.62,217c17.95,0,60.7-7,59.83-76.91-.25-23.06-2.25-77.65-59.83-76.9-51.73.62-59,42.38-60.2,76.9-2.25,69.93,42.13,76.91,60.2,76.91Z" transform="translate(990.92 2234.03)"/>
        <path d="M6.6-1165.38l77-116.54h73.42v266.73H77.28v-146.7l-54.22,83.14H-14l-49.61-81.65v145.21h-79.77v-268h73Z" transform="translate(990.92 2234.03)"/>
        <path d="M363.83-1283.17l114.42,266.74H391.63l-17.08-52.35H288.92l-18.82,52.35-81.77-.38,107.45-266.36Zm-11.59,159.54-22.31-64.06-22.31,64.06Z" transform="translate(990.92 2234.03)"/>
        <path d="M1011.85-1281.92,998-1217.11H923.6v201.92h-81v-201.92H764.06v-64.81Z" transform="translate(990.92 2234.03)"/>
      </g>
      <g>
        <path d="M-916.13-925.44h15v109.68h-15v-47.36H-976v47.36h-15V-925.44h15v47.36h59.83Z" transform="translate(990.92 2234.03)"/>
        <path d="M-721.81-926.81c16.95,0,30.91,5.36,42.25,16.07s16.83,24.06,16.83,40.26-5.73,29.42-17.08,40-25.67,15.82-42.87,15.82-30.17-5.23-41.14-15.82-16.45-23.81-16.45-39.77,5.48-29.79,16.58-40.51S-738.64-926.94-721.81-926.81Zm-.5,12.58c-13.34,0-24.31,4.12-32.91,12.22S-768-883.44-768-870.85a40.25,40.25,0,0,0,13,30.54c8.6,8.1,19.32,12.21,32.28,12.21s23.81-4.11,32.53-12.46a41.1,41.1,0,0,0,13.09-31A39.86,39.86,0,0,0-690.28-902c-8.72-8.1-19.32-12.22-32-12.22Z" transform="translate(990.92 2234.03)"/>
        <path d="M-447.47-925.44H-435v109.68h-12.46v-91.87l-37.07,58.07h-8.13l-37.07-58.51v92.31H-542.2V-925.44h15.39l38.21,62Z" transform="translate(990.92 2234.03)"/>
        <path d="M-300.39-925.44H-244l-2.5,12.46h-41.38v38.64h37.39v10h-37.39v36.15h44.87v12.46h-57.33Z" transform="translate(990.92 2234.03)"/>
        <path d="M88.49-925.44h57.59L143.59-913H102.2v38.64h37.4v10H101v36.15h44.87v12.46H88.49Z" transform="translate(990.92 2234.03)"/>
        <path d="M691.77-925.44h56.34L745.61-913H704.23v38.64h37.4v10h-37.4v36.15H749.1v12.46H691.77Z" transform="translate(990.92 2234.03)"/>
        <path d="M-33.66-839.44v17.58A69.91,69.91,0,0,1-70-812.27c-11.1,0-20.44-2.49-28.17-7.48a52.27,52.27,0,0,1-18.32-20.69A61.27,61.27,0,0,1-123.27-869c0-16.2,5.11-29.91,15.45-41a49.38,49.38,0,0,1,38-16.58c10.34,0,21.93,3.12,34.9,9.23v17.2c-11.84-7.48-23.19-11.22-34.28-11.22a37,37,0,0,0-28.29,12.09c-7.48,8.1-11.22,18.2-11.22,30.41s3.74,22.19,11.09,30.29,16.83,11.84,28.3,11.84S-45.5-831.09-33.66-839.44Z" transform="translate(990.92 2234.03)"/>
        <path d="M352.74-924.2h15v108.44H353.61L285.43-900v84.26H271.72V-925.44h12.34l68.68,85Z" transform="translate(990.92 2234.03)"/>
        <path d="M488.6-925.44h86.13l-6.61,11.21H537.21v98.47h-15v-98.47H488.6Z" transform="translate(990.92 2234.03)"/>
        <path d="M875-815.63V-925.44h25.06c29.79-.13,36,20.06,36,30.78s-7.85,26.43-21.69,29.42c3.52,1.32,4.61,1.59,8,4.41,6.45,5.42,20.09,24.92,24.63,45.18l-13.39-.11c-1.12-10.17-15.79-46.12-35.28-46.12H886.21v46.12H875Zm17.45-98.6h-5v39.89h6.23c8.35,0,14.08-.75,17.2-2.37a16.58,16.58,0,0,0,7.23-7.1,22.76,22.76,0,0,0,2.62-10.85,21.7,21.7,0,0,0-2.87-10.84,15.59,15.59,0,0,0-8.1-6.86c-3.49-1.12-9.22-1.74-17.33-1.87Z" transform="translate(990.92 2234.03)"/>
      </g>
    </g>
  </g>
</svg>
